<?xml version="1.0" encoding="UTF-8" standalone="no"?>
<!-- Generator: Adobe Illustrator 19.0.0, SVG Export Plug-In . SVG Version: 6.00 Build 0)  -->

<svg
   xmlns:dc="http://purl.org/dc/elements/1.1/"
   xmlns:cc="http://creativecommons.org/ns#"
   xmlns:rdf="http://www.w3.org/1999/02/22-rdf-syntax-ns#"
   xmlns:svg="http://www.w3.org/2000/svg"
   xmlns="http://www.w3.org/2000/svg"
   xmlns:sodipodi="http://sodipodi.sourceforge.net/DTD/sodipodi-0.dtd"
   xmlns:inkscape="http://www.inkscape.org/namespaces/inkscape"
   version="1.1"
   id="Capa_1"
   x="0px"
   y="0px"
   viewBox="0 0 512.043 512.043"
   style="enable-background:new 0 0 512.043 512.043;"
   xml:space="preserve"
   sodipodi:docname="delivery-truck.svg"
   inkscape:version="0.92.3 (2405546, 2018-03-11)"
   inkscape:export-filename="E:\gitek\stainless\grafika\delivery-truckk.png"
   inkscape:export-xdpi="96"
   inkscape:export-ydpi="96"><metadata
   id="metadata59"><rdf:RDF><cc:Work
       rdf:about=""><dc:format>image/svg+xml</dc:format><dc:type
         rdf:resource="http://purl.org/dc/dcmitype/StillImage" /></cc:Work></rdf:RDF></metadata><defs
   id="defs57" /><sodipodi:namedview
   pagecolor="#ffffff"
   bordercolor="#666666"
   borderopacity="1"
   objecttolerance="10"
   gridtolerance="10"
   guidetolerance="10"
   inkscape:pageopacity="0"
   inkscape:pageshadow="2"
   inkscape:window-width="3456"
   inkscape:window-height="1803"
   id="namedview55"
   showgrid="false"
   showguides="true"
   inkscape:guide-bbox="true"
   inkscape:zoom="2"
   inkscape:cx="-351.89951"
   inkscape:cy="189.07538"
   inkscape:window-x="-14"
   inkscape:window-y="-14"
   inkscape:window-maximized="1"
   inkscape:current-layer="Capa_1"><sodipodi:guide
     position="140.48637,68.344723"
     orientation="0,1"
     id="guide868"
     inkscape:locked="false" /></sodipodi:namedview>











<g
   id="g24">
</g>
<g
   id="g26">
</g>
<g
   id="g28">
</g>
<g
   id="g30">
</g>
<g
   id="g32">
</g>
<g
   id="g34">
</g>
<g
   id="g36">
</g>
<g
   id="g38">
</g>
<g
   id="g40">
</g>
<g
   id="g42">
</g>
<g
   id="g44">
</g>
<g
   id="g46">
</g>
<g
   id="g48">
</g>
<g
   id="g50">
</g>
<g
   id="g52">
</g>
<path
   inkscape:connector-curvature="0"
   style="fill:#ff7058"
   d="M 436.437,164.8 H 330.709 V 356.427 H 503.936 V 270.176 L 483.733,200.352 C 477.643,179.296 458.357,164.8 436.437,164.8"
   id="path2" /><path
   inkscape:connector-curvature="0"
   style="fill:#84dbff"
   d="m 478.645,269.291 -18.005,-62.24 c -3.104,-10.699 -13.056,-18.187 -24.203,-18.187 h -81.664 v 80.427 z"
   id="path4" /><polygon
   style="fill:#cdd6e0"
   points="354.731,269.259 354.731,188.832 478.667,269.259 "
   id="polygon6" /><path
   inkscape:connector-curvature="0"
   style="fill:#f2f2f2"
   d="m 478.645,269.291 -18.005,-62.24 c -3.104,-10.699 -13.056,-18.187 -24.203,-18.187 h -81.664 z"
   id="path8" /><path
   inkscape:connector-curvature="0"
   style="fill:#ffd15c"
   d="m 32,68.597 h 266.709 c 17.664,0 32,14.325 32,32 V 356.416 H 0 V 100.597 c 0,-17.674 14.325,-32 32,-32"
   id="path10" /><polygon
   style="fill:#f2f2f2"
   points="178.443,140.832 165.483,153.803 152.501,140.832 139.371,153.803 126.421,140.832 113.899,153.355 113.899,68.651 216.747,68.651 216.747,153.205 204.373,140.832 191.403,153.803 "
   id="polygon12" /><path
   inkscape:connector-curvature="0"
   style="fill:#334a5e"
   d="m 512.043,356.405 v 36.16 h -512 v -36.16 h 53.44 c 12.48,-22.4 36.48,-37.547 64,-37.547 27.413,0 51.413,15.147 64,37.547 H 353.43 c 12.48,-22.4 36.363,-37.547 63.883,-37.547 27.52,0 51.413,15.147 64,37.547 z"
   id="path14" /><path
   inkscape:connector-curvature="0"
   style="fill:#40596b"
   d="m 468.416,392.341 c 0,28.224 -22.88,51.104 -51.104,51.104 -28.224,0 -51.083,-22.88 -51.083,-51.104 0,-28.224 22.869,-51.104 51.083,-51.104 28.235,0 51.104,22.88 51.104,51.104"
   id="path16" /><path
   inkscape:connector-curvature="0"
   style="fill:#acb3ba"
   d="m 437.856,392.341 c 0,11.339 -9.195,20.523 -20.523,20.523 -11.339,0 -20.544,-9.184 -20.544,-20.523 0,-11.339 9.195,-20.523 20.544,-20.523 11.328,-0.01 20.523,9.185 20.523,20.523"
   id="path18" /><path
   inkscape:connector-curvature="0"
   style="fill:#40596b"
   d="m 168.544,392.341 c 0,28.224 -22.891,51.104 -51.104,51.104 -28.224,0 -51.104,-22.88 -51.104,-51.104 0,-28.224 22.88,-51.104 51.104,-51.104 28.213,0 51.104,22.88 51.104,51.104"
   id="path20" /><path
   inkscape:connector-curvature="0"
   style="fill:#acb3ba"
   d="m 137.963,392.341 c 0,11.339 -9.184,20.523 -20.523,20.523 -11.339,0 -20.533,-9.184 -20.533,-20.523 0,-11.339 9.195,-20.523 20.533,-20.523 11.338,0 20.523,9.185 20.523,20.523"
   id="path22" /><g
   id="g942"
   inkscape:export-filename="E:\gitek\stainless\grafika\robot.png"
   inkscape:export-xdpi="96"
   inkscape:export-ydpi="96"><rect
     transform="scale(-1,1)"
     y="413.8548"
     x="160.62686"
     height="40.656063"
     width="342.12463"
     id="rect843"
     style="fill:#333333;fill-opacity:1;stroke:none;stroke-opacity:1" /><path
     id="path16-3"
     d="m -533.57208,435.01961 c 0,28.224 22.88,51.104 51.104,51.104 28.224,0 51.083,-22.88 51.083,-51.104 0,-28.224 -22.869,-51.104 -51.083,-51.104 -28.235,0 -51.104,22.88 -51.104,51.104"
     style="fill:#40596b"
     inkscape:connector-curvature="0" /><path
     id="path18-2"
     d="m -503.01208,435.01961 c 0,11.339 9.195,20.523 20.523,20.523 11.339,0 20.544,-9.184 20.544,-20.523 0,-11.339 -9.195,-20.523 -20.544,-20.523 -11.328,-0.01 -20.523,9.185 -20.523,20.523"
     style="fill:#acb3ba"
     inkscape:connector-curvature="0" /><path
     id="path20-4"
     d="m -233.70008,435.01961 c 0,28.224 22.891,51.104 51.104,51.104 28.224,0 51.104,-22.88 51.104,-51.104 0,-28.224 -22.88,-51.104 -51.104,-51.104 -28.213,0 -51.104,22.88 -51.104,51.104"
     style="fill:#40596b"
     inkscape:connector-curvature="0" /><path
     id="path22-3"
     d="m -203.11908,435.01961 c 0,11.339 9.184,20.523 20.523,20.523 11.339,0 20.533,-9.184 20.533,-20.523 0,-11.339 -9.195,-20.523 -20.533,-20.523 -11.338,0 -20.523,9.185 -20.523,20.523"
     style="fill:#acb3ba"
     inkscape:connector-curvature="0" /><path
     sodipodi:nodetypes="cccccccccccccccccscccccccccccccccccccc"
     inkscape:connector-curvature="0"
     id="path920"
     d="m -571.08777,373.28899 -42.19026,-32.70478 20.71158,-30.93695 20.71158,-0.88392 -0.76709,-27.69593 -33.75221,-41.83855 16.10901,-38.30289 58.68281,-17.9729 41.80671,21.21391 3.06838,12.66942 240.10091,1.76783 55.23088,-1.17855 32.60156,28.57985 -3.45193,35.06188 -37.58768,27.10666 -25.31415,-1.17855 -44.108,49.49912 c 0,0 17.25965,36.24044 17.25965,35.06189 0,-1.17855 -6.90386,25.33883 -6.90386,25.33883 l 3.45193,13.65941 -138.84429,0.58928 -2.30129,-19.55216 6.52031,-45.66884 48.32702,-30.05304 69.0386,-49.49913 -6.90386,-10.01767 -207.1158,-19.15145 -27.23189,15.32116 0.76709,34.17796 21.47868,2.06246 14.57482,24.74957 -32.60157,34.17797 c 0.0492,0.0741 -0.13255,0.32572 -0.18019,0.44277 l 8.00068,-34.27197 -4.20375,-16.35472 -66.58186,0.20834 -14.10288,16.14638 z"
     style="fill:#333333;fill-opacity:1;stroke:none;stroke-width:0.87646461px;stroke-linecap:butt;stroke-linejoin:miter;stroke-opacity:1" /></g></svg>