<?xml version="1.0" encoding="UTF-8" standalone="no"?>
<!-- Generator: Adobe Illustrator 19.0.0, SVG Export Plug-In . SVG Version: 6.00 Build 0)  -->

<svg
   xmlns:dc="http://purl.org/dc/elements/1.1/"
   xmlns:cc="http://creativecommons.org/ns#"
   xmlns:rdf="http://www.w3.org/1999/02/22-rdf-syntax-ns#"
   xmlns:svg="http://www.w3.org/2000/svg"
   xmlns="http://www.w3.org/2000/svg"
   xmlns:sodipodi="http://sodipodi.sourceforge.net/DTD/sodipodi-0.dtd"
   xmlns:inkscape="http://www.inkscape.org/namespaces/inkscape"
   version="1.1"
   id="Capa_1"
   x="0px"
   y="0px"
   viewBox="0 0 512.043 512.043"
   style="enable-background:new 0 0 512.043 512.043;"
   xml:space="preserve"
   sodipodi:docname="delivery-truck.svg"
   inkscape:version="0.92.3 (2405546, 2018-03-11)"
   inkscape:export-filename="E:\gitek\stainless\grafika\delivery-truckk.png"
   inkscape:export-xdpi="96"
   inkscape:export-ydpi="96"><metadata
   id="metadata59"><rdf:RDF><cc:Work
       rdf:about=""><dc:format>image/svg+xml</dc:format><dc:type
         rdf:resource="http://purl.org/dc/dcmitype/StillImage" /></cc:Work></rdf:RDF></metadata><defs
   id="defs57" /><sodipodi:namedview
   pagecolor="#ffffff"
   bordercolor="#666666"
   borderopacity="1"
   objecttolerance="10"
   gridtolerance="10"
   guidetolerance="10"
   inkscape:pageopacity="0"
   inkscape:pageshadow="2"
   inkscape:window-width="3456"
   inkscape:window-height="1803"
   id="namedview55"
   showgrid="false"
   showguides="true"
   inkscape:guide-bbox="true"
   inkscape:zoom="4"
   inkscape:cx="-497.42979"
   inkscape:cy="832.92122"
   inkscape:window-x="-14"
   inkscape:window-y="-14"
   inkscape:window-maximized="1"
   inkscape:current-layer="Capa_1"><sodipodi:guide
     position="140.48637,68.344723"
     orientation="0,1"
     id="guide868"
     inkscape:locked="false" /></sodipodi:namedview>











<rect
   style="fill:#acb3ba;fill-opacity:1;stroke:none;stroke-opacity:1"
   id="rect843"
   width="342.12463"
   height="40.656063"
   x="-584.14325"
   y="413.8548" /><g
   id="g24">
</g>
<g
   id="g26">
</g>
<g
   id="g28">
</g>
<g
   id="g30">
</g>
<g
   id="g32">
</g>
<g
   id="g34">
</g>
<g
   id="g36">
</g>
<g
   id="g38">
</g>
<g
   id="g40">
</g>
<g
   id="g42">
</g>
<g
   id="g44">
</g>
<g
   id="g46">
</g>
<g
   id="g48">
</g>
<g
   id="g50">
</g>
<g
   id="g52">
</g>
<path
   inkscape:connector-curvature="0"
   style="fill:#ff7058"
   d="M 436.437,164.8 H 330.709 V 356.427 H 503.936 V 270.176 L 483.733,200.352 C 477.643,179.296 458.357,164.8 436.437,164.8"
   id="path2" /><path
   inkscape:connector-curvature="0"
   style="fill:#84dbff"
   d="m 478.645,269.291 -18.005,-62.24 c -3.104,-10.699 -13.056,-18.187 -24.203,-18.187 h -81.664 v 80.427 z"
   id="path4" /><polygon
   style="fill:#cdd6e0"
   points="354.731,269.259 354.731,188.832 478.667,269.259 "
   id="polygon6" /><path
   inkscape:connector-curvature="0"
   style="fill:#f2f2f2"
   d="m 478.645,269.291 -18.005,-62.24 c -3.104,-10.699 -13.056,-18.187 -24.203,-18.187 h -81.664 z"
   id="path8" /><path
   inkscape:connector-curvature="0"
   style="fill:#ffd15c"
   d="m 32,68.597 h 266.709 c 17.664,0 32,14.325 32,32 V 356.416 H 0 V 100.597 c 0,-17.674 14.325,-32 32,-32"
   id="path10" /><polygon
   style="fill:#f2f2f2"
   points="178.443,140.832 165.483,153.803 152.501,140.832 139.371,153.803 126.421,140.832 113.899,153.355 113.899,68.651 216.747,68.651 216.747,153.205 204.373,140.832 191.403,153.803 "
   id="polygon12" /><path
   inkscape:connector-curvature="0"
   style="fill:#334a5e"
   d="m 512.043,356.405 v 36.16 h -512 v -36.16 h 53.44 c 12.48,-22.4 36.48,-37.547 64,-37.547 27.413,0 51.413,15.147 64,37.547 H 353.43 c 12.48,-22.4 36.363,-37.547 63.883,-37.547 27.52,0 51.413,15.147 64,37.547 z"
   id="path14" /><path
   inkscape:connector-curvature="0"
   style="fill:#40596b"
   d="m 468.416,392.341 c 0,28.224 -22.88,51.104 -51.104,51.104 -28.224,0 -51.083,-22.88 -51.083,-51.104 0,-28.224 22.869,-51.104 51.083,-51.104 28.235,0 51.104,22.88 51.104,51.104"
   id="path16" /><path
   inkscape:connector-curvature="0"
   style="fill:#acb3ba"
   d="m 437.856,392.341 c 0,11.339 -9.195,20.523 -20.523,20.523 -11.339,0 -20.544,-9.184 -20.544,-20.523 0,-11.339 9.195,-20.523 20.544,-20.523 11.328,-0.01 20.523,9.185 20.523,20.523"
   id="path18" /><path
   inkscape:connector-curvature="0"
   style="fill:#40596b"
   d="m 168.544,392.341 c 0,28.224 -22.891,51.104 -51.104,51.104 -28.224,0 -51.104,-22.88 -51.104,-51.104 0,-28.224 22.88,-51.104 51.104,-51.104 28.213,0 51.104,22.88 51.104,51.104"
   id="path20" /><path
   inkscape:connector-curvature="0"
   style="fill:#acb3ba"
   d="m 137.963,392.341 c 0,11.339 -9.184,20.523 -20.523,20.523 -11.339,0 -20.533,-9.184 -20.533,-20.523 0,-11.339 9.195,-20.523 20.533,-20.523 11.338,0 20.523,9.185 20.523,20.523"
   id="path22" /><path
   inkscape:connector-curvature="0"
   style="fill:#40596b"
   d="m -211.19803,435.01961 c 0,28.224 -22.88,51.104 -51.104,51.104 -28.224,0 -51.083,-22.88 -51.083,-51.104 0,-28.224 22.869,-51.104 51.083,-51.104 28.235,0 51.104,22.88 51.104,51.104"
   id="path16-3" /><path
   inkscape:connector-curvature="0"
   style="fill:#acb3ba"
   d="m -241.75803,435.01961 c 0,11.339 -9.195,20.523 -20.523,20.523 -11.339,0 -20.544,-9.184 -20.544,-20.523 0,-11.339 9.195,-20.523 20.544,-20.523 11.328,-0.01 20.523,9.185 20.523,20.523"
   id="path18-2" /><path
   inkscape:connector-curvature="0"
   style="fill:#40596b"
   d="m -511.07003,435.01961 c 0,28.224 -22.891,51.104 -51.104,51.104 -28.224,0 -51.104,-22.88 -51.104,-51.104 0,-28.224 22.88,-51.104 51.104,-51.104 28.213,0 51.104,22.88 51.104,51.104"
   id="path20-4" /><path
   inkscape:connector-curvature="0"
   style="fill:#acb3ba"
   d="m -541.65103,435.01961 c 0,11.339 -9.184,20.523 -20.523,20.523 -11.339,0 -20.533,-9.184 -20.533,-20.523 0,-11.339 9.195,-20.523 20.533,-20.523 11.338,0 20.523,9.185 20.523,20.523"
   id="path22-3" /><path
   inkscape:connector-curvature="0"
   d="m -2058.2715,-274.28239 c 238.117,39.9881 96.0643,-76.80707 148.6928,-6.81314 v -131.878 c 0,-17.576 -5.593,-34.255 -16.176,-48.233 -9.723,-12.843 -23.341,-22.586 -38.547,-27.651 l -65.612,-62.422 204.269,-24.848 c 3.594,4.004 7.617,7.559 12.035,10.634 v 32.558 h -9.997 c -3.787,0 -7.248,2.139 -8.941,5.526 l -19.994,39.987 c -1.924,3.849 -1.17,8.497 1.872,11.539 l 39.987,39.987 c 3.904,3.904 10.234,3.904 14.139,0 3.904,-3.904 3.904,-10.234 0,-14.139 l -34.893,-34.892 14.009,-28.016 h 87.612 l 14.009,28.016 -34.893,34.892 c -3.904,3.904 -3.904,10.234 0,14.139 1.952,1.952 4.511,2.928 7.069,2.928 2.558,0 5.117,-0.976 7.069,-2.928 l 39.987,-39.987 c 3.042,-3.043 3.797,-7.691 1.872,-11.539 l -19.994,-39.987 c -1.693,-3.387 -5.155,-5.526 -8.941,-5.526 h -9.997 v -32.554 c 18.63,-13.008 29.99,-34.497 29.99,-57.418 0,-38.586 -31.392,-69.978 -69.978,-69.978 -25.977,0 -49.492,14.25 -61.618,36.801 l -243.607,5.189 c -0.877,0.019 -1.719,0.161 -2.524,0.39 -5.905,-1.579 -11.988,-2.392 -18.146,-2.392 -38.586,0 -69.978,31.392 -69.978,69.978 0,37.28 29.305,67.839 66.088,69.864 l 45.451,58.657 c -7.583,12.456 -11.57,26.627 -11.57,41.425 v 131.19898 m 315.899,-251.16098 h -39.987 v -22.91 c 6.457,1.921 13.194,2.916 19.994,2.916 6.8,0 13.537,-0.995 19.994,-2.916 v 22.91 z m -66.067,-109.392 c 0,-10e-4 10e-4,-0.002 10e-4,-0.003 7.839,-18.565 25.923,-30.56 46.072,-30.56 27.561,0 49.984,22.423 49.984,49.984 0,17.79 -9.579,34.382 -25.001,43.301 -7.555,4.373 -16.194,6.683 -24.983,6.683 -8.789,0 -17.429,-2.311 -24.985,-6.684 -5.817,-3.365 -10.82,-7.784 -14.874,-13.143 -6.623,-8.732 -10.124,-19.161 -10.124,-30.157 0,-6.748 1.316,-13.282 3.91,-19.421 z m -152.724,171.862 c 0.01,0.002 0.013,0.004 0.02,0.006 25.216,7.501 42.827,31.14 42.827,57.487 0,33.074 -26.907,59.981 -59.981,59.981 -33.074,0 -59.981,-26.908 -59.981,-59.981 0,-13.049 4.117,-25.449 11.907,-35.864 11.45,-15.327 28.973,-24.117 48.074,-24.117 5.86,-10e-4 11.624,0.836 17.134,2.488 z m -77.115,189.451 v -79.144 c 14.666,16.636 36.112,27.16 59.981,27.16 23.869,0 45.315,-10.525 59.981,-27.16 v 79.144 z m 207.158,-354.92 c -0.803,4.264 -1.223,8.612 -1.223,13.027 0,9.831 2.009,19.336 5.87,28.109 l -192.779,23.451 c 0.632,-3.798 0.968,-7.659 0.968,-11.572 0,-18.577 -7.315,-35.853 -19.619,-48.611 z m -259.166,102.947 c -26.626,-1.066 -47.961,-23.05 -47.961,-49.932 0,-27.561 22.423,-49.984 49.984,-49.984 5.483,0 10.882,0.883 16.046,2.624 20.3,6.876 33.938,25.908 33.938,47.36 0,6.748 -1.316,13.282 -3.913,19.426 -0.683,1.617 -1.479,3.251 -2.354,4.834 -8.258,14.844 -23.587,24.476 -40.49,25.594 -1.712,-0.436 -3.524,-0.419 -5.25,0.078 z m 21.387,17.3 c 13.526,-3.916 25.662,-11.866 34.681,-22.8 l 48.266,45.919 c -17.976,1.753 -34.932,9.62 -47.902,22.108 z"
   id="path44"
   sodipodi:nodetypes="ccsccccccsccssccccccccsscccsccsscccssccsccccscccccsscsccccccssscccccscccccsccscccsscsccccccccc"
   style="fill:#acb3ba;fill-opacity:1" /><g
   id="g999"
   transform="translate(-1390,-560)"><path
     sodipodi:nodetypes="cccccccccccccccccccccccccccccccsccccccccccc"
     inkscape:connector-curvature="0"
     id="path920"
     d="m -858.67692,110.91235 5.77615,-63.46958 -55.70896,3.096699 -9.51709,93.741541 -21.47868,2.68483 -14.57482,32.21803 32.60157,44.49153 -0.0317,7e-5 0.21189,0.57632 -8.00068,-44.61391 4.20375,-21.28994 66.58186,0.27121 14.10288,21.01873 -15.70036,51.32493 42.19026,-42.5738 -20.71158,-40.27252 -20.71158,-1.15065 0.76709,-36.05349 m 22.52615,-77.71958 11.22606,-64.744199 -16.10901,-49.86121 -58.68281,-23.396421 -41.80671,27.615441 -3.06838,16.49256 -240.10088,2.30128 -55.2309,-1.53419 -32.6015,37.20414 3.4519,45.642184 37.5877,35.286396 25.3141,-1.534191 44.108,64.43602 c 0,0 -17.2596,47.17639 -17.2596,45.6422 0,-1.53419 6.9038,32.98511 6.9038,32.98511 l -3.4519,95.88693 138.8443,0.7671 2.3013,-103.55789 -6.5204,-59.44992 -48.3269,-39.12187 -69.0386,-64.436025 6.9038,-13.040624 207.11578,-24.9306099 27.73189,35.1944889 z"
     style="fill:#acb3ba;fill-opacity:1;stroke:none;stroke-width:1px;stroke-linecap:butt;stroke-linejoin:miter;stroke-opacity:1" /></g><g
   transform="translate(53.563502,-644.21529)"
   id="g942"
   inkscape:export-filename="E:\gitek\stainless\grafika\robot.png"
   inkscape:export-xdpi="96"
   inkscape:export-ydpi="96"><rect
     transform="scale(-1,1)"
     y="413.8548"
     x="160.62686"
     height="40.656063"
     width="342.12463"
     id="rect843-4"
     style="fill:#333333;fill-opacity:1;stroke:none;stroke-opacity:1" /><path
     id="path16-3-8"
     d="m -533.57208,435.01961 c 0,28.224 22.88,51.104 51.104,51.104 28.224,0 51.083,-22.88 51.083,-51.104 0,-28.224 -22.869,-51.104 -51.083,-51.104 -28.235,0 -51.104,22.88 -51.104,51.104"
     style="fill:#40596b"
     inkscape:connector-curvature="0" /><path
     id="path18-2-4"
     d="m -503.01208,435.01961 c 0,11.339 9.195,20.523 20.523,20.523 11.339,0 20.544,-9.184 20.544,-20.523 0,-11.339 -9.195,-20.523 -20.544,-20.523 -11.328,-0.01 -20.523,9.185 -20.523,20.523"
     style="fill:#acb3ba"
     inkscape:connector-curvature="0" /><path
     id="path20-4-5"
     d="m -233.70008,435.01961 c 0,28.224 22.891,51.104 51.104,51.104 28.224,0 51.104,-22.88 51.104,-51.104 0,-28.224 -22.88,-51.104 -51.104,-51.104 -28.213,0 -51.104,22.88 -51.104,51.104"
     style="fill:#40596b"
     inkscape:connector-curvature="0" /><path
     id="path22-3-2"
     d="m -203.11908,435.01961 c 0,11.339 9.184,20.523 20.523,20.523 11.339,0 20.533,-9.184 20.533,-20.523 0,-11.339 -9.195,-20.523 -20.533,-20.523 -11.338,0 -20.523,9.185 -20.523,20.523"
     style="fill:#acb3ba"
     inkscape:connector-curvature="0" /><path
     sodipodi:nodetypes="ccccccccccccccsccccccccsssc"
     inkscape:connector-curvature="0"
     id="path920-0"
     d="m -606.37417,239.22886 16.10901,-38.30289 58.68281,-17.9729 41.80671,21.21391 3.06838,12.66942 41.71074,0.48416 -31.25989,-135.57636 c 74.40004,-23.989827 296.10349,-24.363302 326.29371,5.774307 -41.22179,117.467363 -5.59532,9.161954 -41.41277,129.907173 l 32.60156,28.57985 -3.45193,35.06188 -37.58768,27.10666 -25.31415,-1.17855 -44.108,49.49912 c 0,0 17.25965,36.24044 17.25965,35.06189 0,-1.17855 -6.90386,25.33883 -6.90386,25.33883 l 3.45193,13.65941 -138.84429,0.58928 -2.30129,-19.55216 6.52031,-45.66884 48.32702,-30.05304 69.0386,-49.49913 -6.90386,-10.01767 c -113.17191,-0.48672 -175.32987,-11.60024 -209.16985,-9.74096 -23.01974,1.26477 -12.45065,29.73785 -24.43304,26.59769 -43.12717,-11.30209 -45.24069,5.22721 -73.73922,-7.34439 -12.86317,-5.67435 -14.86625,-42.13251 -19.4406,-46.63669 z"
     style="fill:#333333;fill-opacity:1;stroke:none;stroke-width:0.87646461px;stroke-linecap:butt;stroke-linejoin:miter;stroke-opacity:1" /></g><path
   inkscape:connector-curvature="0"
   id="path1038"
   d="m -634.22744,-280.88295 8.39418,3.22052 10.40459,15.23894 -15.70192,26.34126 31.7627,-21.53254 -13.71338,-26.83051 -15.26357,-1.90795 1.31171,-94.83051 -41.25937,-1.55021 -0.46355,96.6859 -13.06963,1.2648 -12.73235,26.39221 27.27425,21.14192 -10.95812,-22.44145 9.11225,-18.8883 5.98083,-2.84455 z"
   style="fill:#333333;fill-opacity:1;stroke:none;stroke-width:0.5310449;stroke-linecap:butt;stroke-linejoin:miter;stroke-miterlimit:4;stroke-dasharray:none;stroke-opacity:1"
   sodipodi:nodetypes="ccccccccccccccccc"
   inkscape:export-filename="E:\gitek\stainless\grafika\hook.png"
   inkscape:export-xdpi="96"
   inkscape:export-ydpi="96" /></svg>