<?xml version="1.0" encoding="UTF-8" standalone="no"?>
<svg
   xmlns:dc="http://purl.org/dc/elements/1.1/"
   xmlns:cc="http://creativecommons.org/ns#"
   xmlns:rdf="http://www.w3.org/1999/02/22-rdf-syntax-ns#"
   xmlns:svg="http://www.w3.org/2000/svg"
   xmlns="http://www.w3.org/2000/svg"
   xmlns:sodipodi="http://sodipodi.sourceforge.net/DTD/sodipodi-0.dtd"
   xmlns:inkscape="http://www.inkscape.org/namespaces/inkscape"
   height="512pt"
   viewBox="0 0 512 512"
   width="512pt"
   version="1.1"
   id="svg42"
   sodipodi:docname="map.svg"
   inkscape:version="0.92.3 (2405546, 2018-03-11)">
  <metadata
     id="metadata48">
    <rdf:RDF>
      <cc:Work
         rdf:about="">
        <dc:format>image/svg+xml</dc:format>
        <dc:type
           rdf:resource="http://purl.org/dc/dcmitype/StillImage" />
      </cc:Work>
    </rdf:RDF>
  </metadata>
  <defs
     id="defs46" />
  <sodipodi:namedview
     pagecolor="#ffffff"
     bordercolor="#666666"
     borderopacity="1"
     objecttolerance="10"
     gridtolerance="10"
     guidetolerance="10"
     inkscape:pageopacity="0"
     inkscape:pageshadow="2"
     inkscape:window-width="1248"
     inkscape:window-height="532"
     id="namedview44"
     showgrid="false"
     inkscape:measure-start="0,0"
     inkscape:measure-end="0,0"
     inkscape:zoom="1.3828125"
     inkscape:cx="-51.049922"
     inkscape:cy="176.91598"
     inkscape:window-x="2448"
     inkscape:window-y="0"
     inkscape:window-maximized="0"
     inkscape:current-layer="svg42" />
  <rect
     style="fill:#b3b3b3;fill-opacity:1;stroke:none;stroke-width:0.80054659;stroke-opacity:1"
     id="rect860"
     width="750.9234"
     height="462.13626"
     x="-109.68544"
     y="62.136272" />
  <path
     style="fill:none;stroke:#ffffff;stroke-width:9.44999981;stroke-linecap:round;stroke-linejoin:bevel;stroke-miterlimit:4;stroke-dasharray:none;stroke-opacity:1"
     d="m 151.59321,558.64405 -3.7966,50.71186 -85.360904,-44.68259 -90.367909,28.95378"
     id="path875"
     inkscape:connector-curvature="0"
     inkscape:export-filename="E:\gitek\stainless\grafika\path2.png"
     inkscape:export-xdpi="153"
     inkscape:export-ydpi="153" />
  <path
     style="fill:none;stroke:#ffffff;stroke-width:9.44999981;stroke-linecap:round;stroke-linejoin:bevel;stroke-miterlimit:4;stroke-dasharray:none;stroke-opacity:1"
     d="m 722.44067,591.99998 -94.1017,-34.16949 -109.55933,53.15255 0.54239,31.72881"
     id="path879"
     inkscape:connector-curvature="0"
     inkscape:export-filename="E:\gitek\stainless\grafika\path4.png"
     inkscape:export-xdpi="153.12529"
     inkscape:export-ydpi="153.12529" />
  <path
     style="fill:none;stroke:#ffffff;stroke-width:9.44999981;stroke-linecap:round;stroke-linejoin:bevel;stroke-miterlimit:4;stroke-dasharray:none;stroke-opacity:1"
     d="m 225.8983,581.15252 3.52542,79.99999 107.66101,-58.57626 91.38983,31.18644 2.98305,-92.74577"
     id="path881"
     inkscape:connector-curvature="0"
     inkscape:export-filename="E:\gitek\stainless\grafika\path3.png"
     inkscape:export-xdpi="153.12529"
     inkscape:export-ydpi="153.12529" />
  <g
     id="g873"
     inkscape:export-filename="E:\gitek\stainless\grafika\map.png"
     inkscape:export-xdpi="153.12529"
     inkscape:export-ydpi="153.12529"
     transform="translate(-703.99998,5.4237287)">
    <path
       sodipodi:nodetypes="cccccccccccccccccccc"
       style="fill:#71cc8a"
       inkscape:connector-curvature="0"
       id="path10"
       d="m 491.10156,170.51562 v 186.95313 c -1.37062,4.37661 -3.19677,134.55167 -3.19677,134.55167 L 355.19141,417.35156 353.17578,416.60937 256,473.41016 l -20.83594,-12.1836 -78.54723,-22.68577 0.19176,-21.18923 -72.284424,5.81317 c -26.375,-24.1875 -49.215572,-32.36395 -63.625728,-65.69598 V 170.51563 L 154.79297,121 l 2.01562,1.17969 33.08203,19.33984 20.83204,12.1836 L 256,180.17188 355.19141,122.17969 357.20703,121 Z" />
    <path
       id="path12"
       d="M 248.6875,252.25 V 367.1875 L 158.82422,312.85156 22.164062,360.34375 c -0.429687,-0.94922 -0.847656,-1.91406 -1.265624,-2.875 V 246.76172 l 135.835932,-50.9375 z m 0,0"
       inkscape:connector-curvature="0"
       style="fill:#77c6cf" />
    <path
       id="path14"
       d="m 437.18359,389.26172 -79.97656,-29.58203 -2.01562,1.17969 L 256,418.85156 V 268.81641 l 97.17578,-56.80078 2.01563,0.74218 81.99218,30.32032 z M 491.10156,263.02344 V 232.125 L 357.20703,182.60547 355.19141,183.78516 256,241.77734 210.72266,215.3125 v -61.60937 l -20.83204,-12.1836 v 61.60938 L 156.80859,183.78516 154.79297,182.60547 20.898438,232.125 v 30.89844 l 135.910152,-50.26172 2.01563,-0.74219 76.33984,44.62891 v 84.92969 l -78.35547,-45.8086 -2.01562,-1.17969 -133.894532,49.51563 v 13.36328 c 2.195312,5.07031 4.535156,10.04297 7.042968,14.93359 l 128.867184,-47.66015 2.01563,-0.73828 76.33984,44.625 v 92.59765 L 256,473.41016 v -27.5 l 97.17578,-56.80079 2.01563,0.74219 93.57031,34.59766 c 6.66797,-7.61719 12.89453,-15.63281 18.62109,-24.01172 l -9.37109,-3.46875 V 250.78516 Z m 0,0"
       inkscape:connector-curvature="0"
       style="fill:#fce065" />
    <path
       id="path16"
       d="M 355.19141,122.17578 V 417.34766 L 353.17578,416.60547 256,473.40625 V 180.16797 Z m 0,0"
       inkscape:connector-curvature="0"
       style="fill:#3eaf85" />
    <path
       sodipodi:nodetypes="ccccccc"
       style="fill:#3eaf85"
       inkscape:connector-curvature="0"
       id="path18"
       d="M 156.80859,122.17969 V 417.35156 C 152.71683,416.88338 23.487312,432.02953 23.487312,432.02953 21.00676,355.05517 21.962276,400.12333 20.898438,357.46875 V 170.51562 L 154.79297,121 Z" />
    <path
       id="path20"
       d="m 156.80859,195.86719 v 117.6875 L 22.164062,360.34375 c -0.429687,-0.94922 -0.847656,-1.91406 -1.265624,-2.875 V 246.76172 l 135.835932,-50.9375 z m 0,0"
       inkscape:connector-curvature="0"
       style="fill:#3c9ba5" />
    <g
       id="g30"
       style="fill:#f9a53f">
      <path
         id="path22"
         d="m 355.19141,183.78125 v 28.97656 L 353.17578,212.01562 256,268.81641 v -27.04297 z m 0,0"
         inkscape:connector-curvature="0" />
      <path
         id="path24"
         d="m 355.19141,360.85937 v 28.98829 L 353.17578,389.10547 256,445.90625 v -27.05469 z m 0,0"
         inkscape:connector-curvature="0" />
      <path
         id="path26"
         d="m 156.80859,183.78125 v 28.97656 L 20.898438,263.01562 V 232.11719 L 154.79297,182.60156 Z m 0,0"
         inkscape:connector-curvature="0" />
      <path
         sodipodi:nodetypes="ccccccc"
         inkscape:connector-curvature="0"
         id="path28"
         d="m 156.80859,295.76953 v 28.97266 L 21.445612,374.36786 C 21.143014,363.1732 21.080293,358.17657 20.994317,357.56463 V 344.20135 L 154.79297,294.58984 Z" />
    </g>
  </g>
  <path
     style="fill:none;stroke:#ffffff;stroke-width:9.44999981;stroke-linecap:round;stroke-linejoin:bevel;stroke-miterlimit:4;stroke-dasharray:none;stroke-opacity:1"
     d="m -290.43112,14.419497 -0.54238,-31.72881 -89.22033,-54.50848 -89.22033,27.66102"
     id="path877"
     inkscape:connector-curvature="0"
     inkscape:export-filename="E:\gitek\stainless\grafika\path1.png"
     inkscape:export-xdpi="153.12529"
     inkscape:export-ydpi="153.12529" />
</svg>
